<svg xmlns="http://www.w3.org/2000/svg" width="60" height="60" viewBox="0 0 60 60">
  <defs>
    <style>
      .cls-1 {
        fill-rule: evenodd;
      }
    </style>
  </defs>
  <g id="dashboard">
    <path id="Dashboard-2" data-name="Dashboard" class="cls-1" d="M190,54a1,1,0,0,1-1-1V44a1,1,0,0,1,2,0v9A1,1,0,0,1,190,54Zm-8,0a1,1,0,0,1-.914-1.406l4-9a1,1,0,0,1,1.828.813l-4,9A1,1,0,0,1,182,54Zm16,0a1,1,0,0,1-.915-0.594l-4-9a1,1,0,0,1,1.828-.812l4,9A1,1,0,0,1,198,54Zm14-12H168a1,1,0,0,1-1-1V11a1,1,0,0,1,1-1h17a1,1,0,0,1,0,2H169V40h42V12H195a1,1,0,0,1,0-2h17a1,1,0,0,1,1,1V41A1,1,0,0,1,212,42ZM195,16H185a1,1,0,0,1-1-1V7a1,1,0,0,1,1-1h10a1,1,0,0,1,1,1v8A1,1,0,0,1,195,16Zm-9-2h8V8h-8v6Z" transform="translate(-160)"/>
  </g>
</svg>
