<svg xmlns="http://www.w3.org/2000/svg" width="60" height="60" viewBox="0 0 60 60">
  <defs>
    <style>
      .cls-1 {
        fill-rule: evenodd;
      }
    </style>
  </defs>
  <g id="episodes">
    <path id="Path" class="cls-1" d="M30,43A11.013,11.013,0,0,1,19,32V17a11,11,0,0,1,22,0V32A11.012,11.012,0,0,1,30,43ZM30,8a9.011,9.011,0,0,0-9,9V32a9,9,0,0,0,18,0V17A9.011,9.011,0,0,0,30,8Zm0,39A15.017,15.017,0,0,1,15,32V25a1,1,0,0,1,2,0v7a13,13,0,0,0,26,0V25a1,1,0,0,1,2,0v7A15.017,15.017,0,0,1,30,47Zm3,8H27a1,1,0,0,1,0-2h6A1,1,0,0,1,33,55Zm-3,0a1,1,0,0,1-1-1V46a1,1,0,0,1,2,0v8A1,1,0,0,1,30,55Zm6-31a1,1,0,1,1,1,1A1,1,0,0,1,36,24Zm-3,0a1,1,0,1,1,1,1A1,1,0,0,1,33,24Zm-3,0a1,1,0,1,1,1,1A1,1,0,0,1,30,24Zm-3,0a1,1,0,1,1,1,1A1,1,0,0,1,27,24Zm-3,0a1,1,0,1,1,1,1A1,1,0,0,1,24,24Zm-3,0a1,1,0,1,1,1,1A1,1,0,0,1,21,24Zm14-3a1,1,0,1,1,1,1A1,1,0,0,1,35,21Zm-3,0a1,1,0,1,1,1,1A1,1,0,0,1,32,21Zm-3,0a1,1,0,1,1,1,1A1,1,0,0,1,29,21Zm-3,0a1,1,0,1,1,1,1A1,1,0,0,1,26,21Zm-3,0a1,1,0,1,1,1,1A1,1,0,0,1,23,21Zm13-3a1,1,0,1,1,1,1A1,1,0,0,1,36,18Zm-3,0a1,1,0,1,1,1,1A1,1,0,0,1,33,18Zm-3,0a1,1,0,1,1,1,1A1,1,0,0,1,30,18Zm-3,0a1,1,0,1,1,1,1A1,1,0,0,1,27,18Zm-3,0a1,1,0,1,1,1,1A1,1,0,0,1,24,18Zm-3,0a1,1,0,1,1,1,1A1,1,0,0,1,21,18Zm14-3a1,1,0,1,1,1,1A1,1,0,0,1,35,15Zm-3,0a1,1,0,1,1,1,1A1,1,0,0,1,32,15Zm-3,0a1,1,0,1,1,1,1A1,1,0,0,1,29,15Zm-3,0a1,1,0,1,1,1,1A1,1,0,0,1,26,15Zm-3,0a1,1,0,1,1,1,1A1,1,0,0,1,23,15Zm13-3a1,1,0,1,1,1,1A1,1,0,0,1,36,12Zm-3,0a1,1,0,1,1,1,1A1,1,0,0,1,33,12Zm-3,0a1,1,0,1,1,1,1A1,1,0,0,1,30,12Zm-3,0a1,1,0,1,1,1,1A1,1,0,0,1,27,12Zm-3,0a1,1,0,1,1,1,1A1,1,0,0,1,24,12Zm-3,0a1,1,0,1,1,1,1A1,1,0,0,1,21,12ZM32,9a1,1,0,1,1,1,1A1,1,0,0,1,32,9ZM29,9a1,1,0,1,1,1,1A1,1,0,0,1,29,9ZM26,9a1,1,0,1,1,1,1A1,1,0,0,1,26,9ZM40,28H20a1,1,0,1,1,0-2H40A1,1,0,0,1,40,28Z"/>
  </g>
</svg>
